<?xml version="1.0" standalone="no"?>
<!DOCTYPE svg PUBLIC "-//W3C//DTD SVG 20010904//EN"
 "http://www.w3.org/TR/2001/REC-SVG-20010904/DTD/svg10.dtd">
<svg version="1.0" xmlns="http://www.w3.org/2000/svg"
 width="240.000000pt" height="240.000000pt" viewBox="0 0 240.000000 240.000000"
 preserveAspectRatio="xMidYMid meet">
<metadata>
Created by potrace 1.11, written by Peter Selinger 2001-2013
</metadata>
<g transform="translate(0.000000,240.000000) scale(0.100000,-0.100000)"
fill="#000000" stroke="none">
<path d="M1043 2364 c-24 -6 -27 -14 -17 -60 l6 -29 161 0 c184 0 267 -15 404
-71 45 -19 86 -34 91 -34 7 0 42 62 42 74 0 11 -154 71 -236 92 -83 22 -125
27 -264 29 -91 2 -175 1 -187 -1z"/>
<path d="M779 1753 c-12 -27 -37 -86 -56 -133 -33 -80 -109 -258 -139 -325 -7
-16 -40 -95 -72 -175 -33 -80 -78 -186 -100 -237 -22 -50 -37 -94 -34 -97 8
-8 212 -6 241 3 20 5 31 25 59 99 l35 92 197 0 196 0 40 -95 39 -96 130 -2
c141 -2 136 -4 119 53 -7 24 -6 24 12 8 33 -29 126 -65 202 -78 125 -21 247 7
318 72 120 111 75 308 -81 357 -17 5 -64 19 -105 32 -88 26 -100 34 -100 64 0
32 23 47 78 52 38 4 57 -1 103 -25 l57 -30 63 65 64 64 -30 25 c-73 59 -255
90 -356 61 -128 -38 -193 -113 -193 -228 -1 -61 2 -71 30 -106 41 -50 79 -71
183 -100 47 -14 96 -31 109 -39 42 -28 22 -89 -33 -100 -52 -9 -98 3 -154 40
l-49 33 -63 -63 c-35 -35 -66 -64 -69 -64 -3 0 -20 39 -39 88 -19 48 -47 114
-62 147 -25 55 -101 238 -216 520 -25 61 -51 122 -59 138 l-15 27 -115 0 -115
0 -20 -47z m189 -382 c28 -76 54 -150 58 -165 l6 -26 -122 0 -122 0 7 28 c3
15 21 65 39 112 19 47 42 109 52 138 10 28 21 52 25 52 3 0 29 -62 57 -139z"/>
<path d="M455 340 c-34 -35 -31 -40 59 -104 345 -246 818 -282 1204 -93 60 29
125 66 145 81 l36 28 -27 34 c-15 19 -30 34 -33 34 -4 0 -31 -17 -60 -37 -66
-46 -224 -115 -310 -137 -116 -29 -261 -39 -376 -27 -131 14 -203 32 -323 83
-85 36 -251 135 -266 159 -9 15 -19 11 -49 -21z"/>
</g>
</svg>
